<mxfile host="Electron" modified="2024-07-16T15:13:23.566Z" agent="Mozilla/5.0 (Windows NT 10.0; Win64; x64) AppleWebKit/537.36 (KHTML, like Gecko) draw.io/24.6.4 Chrome/124.0.6367.207 Electron/30.0.6 Safari/537.36" etag="WkqXidpcuzGFSl-WameF" version="24.6.4" type="device">
  <diagram id="Oepoml1OLdBBz7kvxnfh" name="Page-1">
    <mxGraphModel dx="1379" dy="1247" grid="1" gridSize="10" guides="1" tooltips="1" connect="1" arrows="1" fold="1" page="1" pageScale="1" pageWidth="827" pageHeight="1169" math="0" shadow="0">
      <root>
        <mxCell id="0" />
        <mxCell id="1" parent="0" />
        <mxCell id="EYDuaXu67znf9c2ujuOX-2" value="spoke-01&lt;br&gt;10.13.1.0/24" style="rounded=0;whiteSpace=wrap;html=1;dashed=1;strokeColor=#004C99;align=left;fontColor=#666666;verticalAlign=top;" parent="1" vertex="1">
          <mxGeometry x="20" y="280" width="650" height="230" as="geometry" />
        </mxCell>
        <mxCell id="EYDuaXu67znf9c2ujuOX-3" value="default subnet&lt;br&gt;&lt;div style=&quot;&quot;&gt;&lt;span style=&quot;background-color: initial;&quot;&gt;10.13.1.0/24&lt;/span&gt;&lt;/div&gt;" style="rounded=0;whiteSpace=wrap;html=1;dashed=1;dashPattern=1 1;fontColor=#666666;strokeColor=none;fillColor=#E6E6E6;align=left;verticalAlign=top;" parent="1" vertex="1">
          <mxGeometry x="60" y="330" width="600" height="170" as="geometry" />
        </mxCell>
        <mxCell id="EYDuaXu67znf9c2ujuOX-5" value="spoke-01-az-012&lt;br&gt;10.13.1.6" style="aspect=fixed;html=1;points=[];align=center;image;fontSize=12;image=img/lib/azure2/compute/Virtual_Machine.svg;dashed=1;dashPattern=1 1;fontColor=#666666;strokeColor=#004C99;fillColor=#E6E6E6;" parent="1" vertex="1">
          <mxGeometry x="310" y="360" width="69" height="64" as="geometry" />
        </mxCell>
        <mxCell id="EYDuaXu67znf9c2ujuOX-6" value="spoke-01-az-02&lt;br&gt;10.13.1.7" style="aspect=fixed;html=1;points=[];align=center;image;fontSize=12;image=img/lib/azure2/compute/Virtual_Machine.svg;dashed=1;dashPattern=1 1;fontColor=#666666;strokeColor=#004C99;fillColor=#E6E6E6;" parent="1" vertex="1">
          <mxGeometry x="442" y="360" width="69" height="64" as="geometry" />
        </mxCell>
        <mxCell id="EYDuaXu67znf9c2ujuOX-7" value="spoke-01-az-03&lt;br&gt;10.13.1.8" style="aspect=fixed;html=1;points=[];align=center;image;fontSize=12;image=img/lib/azure2/compute/Virtual_Machine.svg;dashed=1;dashPattern=1 1;fontColor=#666666;strokeColor=#004C99;fillColor=#E6E6E6;" parent="1" vertex="1">
          <mxGeometry x="560.5" y="360" width="69" height="64" as="geometry" />
        </mxCell>
        <mxCell id="EYDuaXu67znf9c2ujuOX-8" value="Availability Zone&lt;br&gt;01" style="rounded=0;whiteSpace=wrap;html=1;dashed=1;fontColor=#666666;strokeColor=#CC0000;fillColor=none;verticalAlign=top;strokeWidth=2;fontStyle=0;shadow=0;sketch=0;" parent="1" vertex="1">
          <mxGeometry x="160" y="210" width="250" height="280" as="geometry" />
        </mxCell>
        <mxCell id="EYDuaXu67znf9c2ujuOX-9" value="" style="aspect=fixed;html=1;points=[];align=center;image;fontSize=12;image=img/lib/azure2/networking/Virtual_Networks.svg;dashed=1;fontColor=#666666;strokeColor=#97D077;strokeWidth=2;fillColor=none;" parent="1" vertex="1">
          <mxGeometry x="20" y="253" width="33.5" height="20" as="geometry" />
        </mxCell>
        <mxCell id="EYDuaXu67znf9c2ujuOX-10" value="Availability Zone&lt;br&gt;02" style="rounded=0;whiteSpace=wrap;html=1;dashed=1;fontColor=#666666;strokeColor=#CC0000;fillColor=none;verticalAlign=top;strokeWidth=2;fontStyle=0" parent="1" vertex="1">
          <mxGeometry x="421.5" y="210" width="110" height="280" as="geometry" />
        </mxCell>
        <mxCell id="EYDuaXu67znf9c2ujuOX-11" value="Availability Zone&lt;br&gt;03" style="rounded=0;whiteSpace=wrap;html=1;dashed=1;fontColor=#666666;strokeColor=#CC0000;fillColor=none;verticalAlign=top;strokeWidth=2;fontStyle=0" parent="1" vertex="1">
          <mxGeometry x="540" y="210" width="110" height="280" as="geometry" />
        </mxCell>
        <mxCell id="EYDuaXu67znf9c2ujuOX-12" value="Proximity Placement Group" style="swimlane;horizontal=0;fontColor=#666666;strokeColor=#4D4D4D;strokeWidth=1;fillColor=none;fontSize=9;fontStyle=0;align=left;" parent="1" vertex="1">
          <mxGeometry x="169.5" y="349" width="230.5" height="132" as="geometry">
            <mxRectangle x="169.5" y="349" width="30" height="140" as="alternateBounds" />
          </mxGeometry>
        </mxCell>
        <mxCell id="EYDuaXu67znf9c2ujuOX-4" value="spoke-01-az-01&lt;br&gt;10.13.1.5" style="aspect=fixed;html=1;points=[];align=center;image;fontSize=12;image=img/lib/azure2/compute/Virtual_Machine.svg;dashed=1;dashPattern=1 1;fontColor=#666666;strokeColor=#004C99;fillColor=#E6E6E6;" parent="EYDuaXu67znf9c2ujuOX-12" vertex="1">
          <mxGeometry x="40.5" y="11" width="69" height="64" as="geometry" />
        </mxCell>
        <mxCell id="EYDuaXu67znf9c2ujuOX-24" value="spoke-02&lt;br&gt;10.13.2.0/24" style="rounded=0;whiteSpace=wrap;html=1;dashed=1;strokeColor=#004C99;align=left;fontColor=#666666;verticalAlign=top;" parent="1" vertex="1">
          <mxGeometry x="20" y="630" width="650" height="230" as="geometry" />
        </mxCell>
        <mxCell id="EYDuaXu67znf9c2ujuOX-25" value="default subnet&lt;br&gt;&lt;div style=&quot;&quot;&gt;&lt;span style=&quot;background-color: initial;&quot;&gt;10.13.2.0/24&lt;/span&gt;&lt;/div&gt;" style="rounded=0;whiteSpace=wrap;html=1;dashed=1;dashPattern=1 1;fontColor=#666666;strokeColor=none;fillColor=#E6E6E6;align=left;verticalAlign=top;" parent="1" vertex="1">
          <mxGeometry x="60" y="680" width="600" height="170" as="geometry" />
        </mxCell>
        <mxCell id="EYDuaXu67znf9c2ujuOX-27" value="spoke-02-az-02&lt;br&gt;10.13.2.6" style="aspect=fixed;html=1;points=[];align=center;image;fontSize=12;image=img/lib/azure2/compute/Virtual_Machine.svg;dashed=1;dashPattern=1 1;fontColor=#666666;strokeColor=#004C99;fillColor=#E6E6E6;" parent="1" vertex="1">
          <mxGeometry x="442" y="710" width="69" height="64" as="geometry" />
        </mxCell>
        <mxCell id="EYDuaXu67znf9c2ujuOX-28" value="spoke-02-az-03&lt;br&gt;10.13.2.7" style="aspect=fixed;html=1;points=[];align=center;image;fontSize=12;image=img/lib/azure2/compute/Virtual_Machine.svg;dashed=1;dashPattern=1 1;fontColor=#666666;strokeColor=#004C99;fillColor=#E6E6E6;" parent="1" vertex="1">
          <mxGeometry x="560.5" y="710" width="69" height="64" as="geometry" />
        </mxCell>
        <mxCell id="EYDuaXu67znf9c2ujuOX-29" value="Availability Zone&lt;br&gt;01" style="rounded=0;whiteSpace=wrap;html=1;dashed=1;fontColor=#666666;strokeColor=#CC0000;fillColor=none;verticalAlign=top;strokeWidth=2;fontStyle=0;shadow=0;sketch=0;" parent="1" vertex="1">
          <mxGeometry x="300.25" y="560" width="109.75" height="280" as="geometry" />
        </mxCell>
        <mxCell id="EYDuaXu67znf9c2ujuOX-30" value="" style="aspect=fixed;html=1;points=[];align=center;image;fontSize=12;image=img/lib/azure2/networking/Virtual_Networks.svg;dashed=1;fontColor=#666666;strokeColor=#97D077;strokeWidth=2;fillColor=none;" parent="1" vertex="1">
          <mxGeometry x="20" y="603" width="33.5" height="20" as="geometry" />
        </mxCell>
        <mxCell id="EYDuaXu67znf9c2ujuOX-31" value="Availability Zone&lt;br&gt;02" style="rounded=0;whiteSpace=wrap;html=1;dashed=1;fontColor=#666666;strokeColor=#CC0000;fillColor=none;verticalAlign=top;strokeWidth=2;fontStyle=0" parent="1" vertex="1">
          <mxGeometry x="421.5" y="560" width="110" height="280" as="geometry" />
        </mxCell>
        <mxCell id="EYDuaXu67znf9c2ujuOX-32" value="Availability Zone&lt;br&gt;03" style="rounded=0;whiteSpace=wrap;html=1;dashed=1;fontColor=#666666;strokeColor=#CC0000;fillColor=none;verticalAlign=top;strokeWidth=2;fontStyle=0" parent="1" vertex="1">
          <mxGeometry x="540" y="560" width="110" height="280" as="geometry" />
        </mxCell>
        <mxCell id="EYDuaXu67znf9c2ujuOX-34" value="spoke-02-az-01&lt;br&gt;10.13.2.5" style="aspect=fixed;html=1;points=[];align=center;image;fontSize=12;image=img/lib/azure2/compute/Virtual_Machine.svg;dashed=1;dashPattern=1 1;fontColor=#666666;strokeColor=#004C99;fillColor=#E6E6E6;" parent="1" vertex="1">
          <mxGeometry x="325.5" y="710" width="69" height="64" as="geometry" />
        </mxCell>
        <mxCell id="EYDuaXu67znf9c2ujuOX-38" value="" style="endArrow=classic;html=1;rounded=0;fontSize=9;fontColor=#666666;exitX=1;exitY=0.5;exitDx=0;exitDy=0;entryX=1;entryY=0.5;entryDx=0;entryDy=0;strokeColor=#66B2FF;startArrow=classic;startFill=1;" parent="1" source="EYDuaXu67znf9c2ujuOX-2" target="EYDuaXu67znf9c2ujuOX-24" edge="1">
          <mxGeometry relative="1" as="geometry">
            <mxPoint x="410" y="510" as="sourcePoint" />
            <mxPoint x="870" y="460" as="targetPoint" />
            <Array as="points">
              <mxPoint x="710" y="395" />
              <mxPoint x="710" y="580" />
              <mxPoint x="710" y="745" />
            </Array>
          </mxGeometry>
        </mxCell>
        <mxCell id="EYDuaXu67znf9c2ujuOX-39" value="peering" style="edgeLabel;resizable=0;html=1;align=center;verticalAlign=middle;rounded=0;shadow=0;sketch=0;fontSize=9;fontColor=#666666;strokeColor=#4D4D4D;strokeWidth=1;fillColor=none;" parent="EYDuaXu67znf9c2ujuOX-38" connectable="0" vertex="1">
          <mxGeometry relative="1" as="geometry" />
        </mxCell>
        <mxCell id="EYDuaXu67znf9c2ujuOX-42" value="spoke-01&lt;br&gt;10.13.1.0/24" style="rounded=0;whiteSpace=wrap;html=1;dashed=1;strokeColor=#004C99;align=left;fontColor=#666666;verticalAlign=top;" parent="1" vertex="1">
          <mxGeometry x="20" y="1010" width="650" height="230" as="geometry" />
        </mxCell>
        <mxCell id="EYDuaXu67znf9c2ujuOX-43" value="default subnet&lt;br&gt;&lt;div style=&quot;&quot;&gt;&lt;span style=&quot;background-color: initial;&quot;&gt;10.13.1.0/24&lt;/span&gt;&lt;/div&gt;" style="rounded=0;whiteSpace=wrap;html=1;dashed=1;dashPattern=1 1;fontColor=#666666;strokeColor=none;fillColor=#E6E6E6;align=left;verticalAlign=top;" parent="1" vertex="1">
          <mxGeometry x="60" y="1060" width="600" height="170" as="geometry" />
        </mxCell>
        <mxCell id="EYDuaXu67znf9c2ujuOX-44" value="spoke-01-az-012&lt;br&gt;10.13.1.6" style="aspect=fixed;html=1;points=[];align=center;image;fontSize=12;image=img/lib/azure2/compute/Virtual_Machine.svg;dashed=1;dashPattern=1 1;fontColor=#666666;strokeColor=#004C99;fillColor=#E6E6E6;" parent="1" vertex="1">
          <mxGeometry x="310" y="1090" width="69" height="64" as="geometry" />
        </mxCell>
        <mxCell id="EYDuaXu67znf9c2ujuOX-45" value="spoke-01-az-02&lt;br&gt;10.13.1.7" style="aspect=fixed;html=1;points=[];align=center;image;fontSize=12;image=img/lib/azure2/compute/Virtual_Machine.svg;dashed=1;dashPattern=1 1;fontColor=#666666;strokeColor=#004C99;fillColor=#E6E6E6;" parent="1" vertex="1">
          <mxGeometry x="442" y="1090" width="69" height="64" as="geometry" />
        </mxCell>
        <mxCell id="EYDuaXu67znf9c2ujuOX-46" value="spoke-01-az-03&lt;br&gt;10.13.1.8" style="aspect=fixed;html=1;points=[];align=center;image;fontSize=12;image=img/lib/azure2/compute/Virtual_Machine.svg;dashed=1;dashPattern=1 1;fontColor=#666666;strokeColor=#004C99;fillColor=#E6E6E6;" parent="1" vertex="1">
          <mxGeometry x="560.5" y="1090" width="69" height="64" as="geometry" />
        </mxCell>
        <mxCell id="EYDuaXu67znf9c2ujuOX-47" value="Availability Zone&lt;br&gt;01" style="rounded=0;whiteSpace=wrap;html=1;dashed=1;fontColor=#666666;strokeColor=#CC0000;fillColor=none;verticalAlign=top;strokeWidth=2;fontStyle=0;shadow=0;sketch=0;" parent="1" vertex="1">
          <mxGeometry x="160" y="940" width="250" height="280" as="geometry" />
        </mxCell>
        <mxCell id="EYDuaXu67znf9c2ujuOX-48" value="" style="aspect=fixed;html=1;points=[];align=center;image;fontSize=12;image=img/lib/azure2/networking/Virtual_Networks.svg;dashed=1;fontColor=#666666;strokeColor=#97D077;strokeWidth=2;fillColor=none;" parent="1" vertex="1">
          <mxGeometry x="20" y="983" width="33.5" height="20" as="geometry" />
        </mxCell>
        <mxCell id="EYDuaXu67znf9c2ujuOX-49" value="Availability Zone&lt;br&gt;02" style="rounded=0;whiteSpace=wrap;html=1;dashed=1;fontColor=#666666;strokeColor=#CC0000;fillColor=none;verticalAlign=top;strokeWidth=2;fontStyle=0" parent="1" vertex="1">
          <mxGeometry x="421.5" y="940" width="110" height="280" as="geometry" />
        </mxCell>
        <mxCell id="EYDuaXu67znf9c2ujuOX-50" value="Availability Zone&lt;br&gt;03" style="rounded=0;whiteSpace=wrap;html=1;dashed=1;fontColor=#666666;strokeColor=#CC0000;fillColor=none;verticalAlign=top;strokeWidth=2;fontStyle=0" parent="1" vertex="1">
          <mxGeometry x="540" y="940" width="110" height="280" as="geometry" />
        </mxCell>
        <mxCell id="EYDuaXu67znf9c2ujuOX-51" value="Proximity Placement Group" style="swimlane;horizontal=0;fontColor=#666666;strokeColor=#4D4D4D;strokeWidth=1;fillColor=none;fontSize=9;fontStyle=0;align=left;" parent="1" vertex="1">
          <mxGeometry x="169.5" y="1079" width="230.5" height="132" as="geometry">
            <mxRectangle x="169.5" y="349" width="30" height="140" as="alternateBounds" />
          </mxGeometry>
        </mxCell>
        <mxCell id="EYDuaXu67znf9c2ujuOX-52" value="spoke-01-az-01&lt;br&gt;10.13.1.5" style="aspect=fixed;html=1;points=[];align=center;image;fontSize=12;image=img/lib/azure2/compute/Virtual_Machine.svg;dashed=1;dashPattern=1 1;fontColor=#666666;strokeColor=#004C99;fillColor=#E6E6E6;" parent="EYDuaXu67znf9c2ujuOX-51" vertex="1">
          <mxGeometry x="40.5" y="11" width="69" height="64" as="geometry" />
        </mxCell>
        <mxCell id="EYDuaXu67znf9c2ujuOX-53" value="spoke-02&lt;br&gt;10.13.2.0/24" style="rounded=0;whiteSpace=wrap;html=1;dashed=1;strokeColor=#004C99;align=left;fontColor=#666666;verticalAlign=top;" parent="1" vertex="1">
          <mxGeometry x="20" y="1360" width="650" height="230" as="geometry" />
        </mxCell>
        <mxCell id="EYDuaXu67znf9c2ujuOX-54" value="default subnet&lt;br&gt;&lt;div style=&quot;&quot;&gt;&lt;span style=&quot;background-color: initial;&quot;&gt;10.13.2.0/24&lt;/span&gt;&lt;/div&gt;" style="rounded=0;whiteSpace=wrap;html=1;dashed=1;dashPattern=1 1;fontColor=#666666;strokeColor=none;fillColor=#E6E6E6;align=left;verticalAlign=top;" parent="1" vertex="1">
          <mxGeometry x="60" y="1410" width="600" height="170" as="geometry" />
        </mxCell>
        <mxCell id="EYDuaXu67znf9c2ujuOX-55" value="spoke-02-az-02&lt;br&gt;10.13.2.6" style="aspect=fixed;html=1;points=[];align=center;image;fontSize=12;image=img/lib/azure2/compute/Virtual_Machine.svg;dashed=1;dashPattern=1 1;fontColor=#666666;strokeColor=#004C99;fillColor=#E6E6E6;" parent="1" vertex="1">
          <mxGeometry x="442" y="1440" width="69" height="64" as="geometry" />
        </mxCell>
        <mxCell id="EYDuaXu67znf9c2ujuOX-56" value="spoke-02-az-03&lt;br&gt;10.13.2.7" style="aspect=fixed;html=1;points=[];align=center;image;fontSize=12;image=img/lib/azure2/compute/Virtual_Machine.svg;dashed=1;dashPattern=1 1;fontColor=#666666;strokeColor=#004C99;fillColor=#E6E6E6;" parent="1" vertex="1">
          <mxGeometry x="560.5" y="1440" width="69" height="64" as="geometry" />
        </mxCell>
        <mxCell id="EYDuaXu67znf9c2ujuOX-57" value="Availability Zone&lt;br&gt;01" style="rounded=0;whiteSpace=wrap;html=1;dashed=1;fontColor=#666666;strokeColor=#CC0000;fillColor=none;verticalAlign=top;strokeWidth=2;fontStyle=0;shadow=0;sketch=0;" parent="1" vertex="1">
          <mxGeometry x="300.25" y="1290" width="109.75" height="280" as="geometry" />
        </mxCell>
        <mxCell id="EYDuaXu67znf9c2ujuOX-58" value="" style="aspect=fixed;html=1;points=[];align=center;image;fontSize=12;image=img/lib/azure2/networking/Virtual_Networks.svg;dashed=1;fontColor=#666666;strokeColor=#97D077;strokeWidth=2;fillColor=none;" parent="1" vertex="1">
          <mxGeometry x="20" y="1333" width="33.5" height="20" as="geometry" />
        </mxCell>
        <mxCell id="EYDuaXu67znf9c2ujuOX-59" value="Availability Zone&lt;br&gt;02" style="rounded=0;whiteSpace=wrap;html=1;dashed=1;fontColor=#666666;strokeColor=#CC0000;fillColor=none;verticalAlign=top;strokeWidth=2;fontStyle=0" parent="1" vertex="1">
          <mxGeometry x="421.5" y="1290" width="110" height="280" as="geometry" />
        </mxCell>
        <mxCell id="EYDuaXu67znf9c2ujuOX-60" value="Availability Zone&lt;br&gt;03" style="rounded=0;whiteSpace=wrap;html=1;dashed=1;fontColor=#666666;strokeColor=#CC0000;fillColor=none;verticalAlign=top;strokeWidth=2;fontStyle=0" parent="1" vertex="1">
          <mxGeometry x="540" y="1290" width="110" height="280" as="geometry" />
        </mxCell>
        <mxCell id="EYDuaXu67znf9c2ujuOX-61" value="spoke-02-az-01&lt;br&gt;10.13.2.5" style="aspect=fixed;html=1;points=[];align=center;image;fontSize=12;image=img/lib/azure2/compute/Virtual_Machine.svg;dashed=1;dashPattern=1 1;fontColor=#666666;strokeColor=#004C99;fillColor=#E6E6E6;" parent="1" vertex="1">
          <mxGeometry x="325.5" y="1440" width="69" height="64" as="geometry" />
        </mxCell>
        <mxCell id="EYDuaXu67znf9c2ujuOX-64" value="hub-lab-net&lt;br&gt;10.12.0.0/16" style="rounded=0;whiteSpace=wrap;html=1;dashed=1;strokeColor=#004C99;align=left;fontColor=#666666;verticalAlign=top;" parent="1" vertex="1">
          <mxGeometry x="720" y="1087" width="220" height="470" as="geometry" />
        </mxCell>
        <mxCell id="EYDuaXu67znf9c2ujuOX-65" value="GatewaySubnet&lt;br&gt;&lt;div style=&quot;&quot;&gt;&lt;span style=&quot;background-color: initial;&quot;&gt;10.12.2.0/24&lt;/span&gt;&lt;/div&gt;" style="rounded=0;whiteSpace=wrap;html=1;dashed=1;dashPattern=1 1;fontColor=#666666;strokeColor=none;fillColor=#E6E6E6;align=left;verticalAlign=top;" parent="1" vertex="1">
          <mxGeometry x="755" y="1247" width="150" height="150" as="geometry" />
        </mxCell>
        <mxCell id="EYDuaXu67znf9c2ujuOX-69" value="" style="aspect=fixed;html=1;points=[];align=center;image;fontSize=12;image=img/lib/azure2/networking/Virtual_Networks.svg;dashed=1;fontColor=#666666;strokeColor=#97D077;strokeWidth=2;fillColor=none;" parent="1" vertex="1">
          <mxGeometry x="720" y="1060" width="33.5" height="20" as="geometry" />
        </mxCell>
        <mxCell id="EYDuaXu67znf9c2ujuOX-74" value="" style="sketch=0;aspect=fixed;html=1;points=[];align=center;image;fontSize=12;image=img/lib/mscae/VPN_Gateway.svg;rounded=0;shadow=0;fontColor=#666666;strokeColor=#4D4D4D;strokeWidth=1;fillColor=none;" parent="1" vertex="1">
          <mxGeometry x="807.5" y="1307" width="45" height="50" as="geometry" />
        </mxCell>
        <mxCell id="EYDuaXu67znf9c2ujuOX-79" value="peering" style="endArrow=classic;startArrow=classic;html=1;rounded=0;fontSize=9;fontColor=#666666;strokeColor=#66B2FF;exitX=1.002;exitY=0.787;exitDx=0;exitDy=0;exitPerimeter=0;entryX=-0.008;entryY=0.221;entryDx=0;entryDy=0;entryPerimeter=0;verticalAlign=bottom;" parent="1" source="EYDuaXu67znf9c2ujuOX-42" target="EYDuaXu67znf9c2ujuOX-64" edge="1">
          <mxGeometry width="50" height="50" relative="1" as="geometry">
            <mxPoint x="990" y="900" as="sourcePoint" />
            <mxPoint x="1040" y="850" as="targetPoint" />
          </mxGeometry>
        </mxCell>
        <mxCell id="EYDuaXu67znf9c2ujuOX-80" value="peering" style="endArrow=classic;startArrow=classic;html=1;rounded=0;fontSize=9;fontColor=#666666;strokeColor=#66B2FF;exitX=1.002;exitY=0.787;exitDx=0;exitDy=0;exitPerimeter=0;entryX=-0.008;entryY=0.221;entryDx=0;entryDy=0;entryPerimeter=0;verticalAlign=bottom;" parent="1" edge="1">
          <mxGeometry width="50" height="50" relative="1" as="geometry">
            <mxPoint x="672" y="1467.1399999999999" as="sourcePoint" />
            <mxPoint x="718.94" y="1467" as="targetPoint" />
          </mxGeometry>
        </mxCell>
        <mxCell id="GXyTZDjO0MZ4TqnyJxZA-1" value="spoke-01&lt;br&gt;10.13.1.0/24" style="rounded=0;whiteSpace=wrap;html=1;dashed=1;strokeColor=#004C99;align=left;fontColor=#666666;verticalAlign=top;" vertex="1" parent="1">
          <mxGeometry x="16.5" y="1710" width="650" height="230" as="geometry" />
        </mxCell>
        <mxCell id="GXyTZDjO0MZ4TqnyJxZA-2" value="default subnet&lt;br&gt;&lt;div style=&quot;&quot;&gt;&lt;span style=&quot;background-color: initial;&quot;&gt;10.13.1.0/24&lt;/span&gt;&lt;/div&gt;" style="rounded=0;whiteSpace=wrap;html=1;dashed=1;dashPattern=1 1;fontColor=#666666;strokeColor=none;fillColor=#E6E6E6;align=left;verticalAlign=top;" vertex="1" parent="1">
          <mxGeometry x="56.5" y="1760" width="600" height="170" as="geometry" />
        </mxCell>
        <mxCell id="GXyTZDjO0MZ4TqnyJxZA-3" value="spoke-01-az-012&lt;br&gt;10.13.1.6" style="aspect=fixed;html=1;points=[];align=center;image;fontSize=12;image=img/lib/azure2/compute/Virtual_Machine.svg;dashed=1;dashPattern=1 1;fontColor=#666666;strokeColor=#004C99;fillColor=#E6E6E6;" vertex="1" parent="1">
          <mxGeometry x="306.5" y="1790" width="69" height="64" as="geometry" />
        </mxCell>
        <mxCell id="GXyTZDjO0MZ4TqnyJxZA-4" value="spoke-01-az-02&lt;br&gt;10.13.1.7" style="aspect=fixed;html=1;points=[];align=center;image;fontSize=12;image=img/lib/azure2/compute/Virtual_Machine.svg;dashed=1;dashPattern=1 1;fontColor=#666666;strokeColor=#004C99;fillColor=#E6E6E6;" vertex="1" parent="1">
          <mxGeometry x="438.5" y="1790" width="69" height="64" as="geometry" />
        </mxCell>
        <mxCell id="GXyTZDjO0MZ4TqnyJxZA-5" value="spoke-01-az-03&lt;br&gt;10.13.1.8" style="aspect=fixed;html=1;points=[];align=center;image;fontSize=12;image=img/lib/azure2/compute/Virtual_Machine.svg;dashed=1;dashPattern=1 1;fontColor=#666666;strokeColor=#004C99;fillColor=#E6E6E6;" vertex="1" parent="1">
          <mxGeometry x="557" y="1790" width="69" height="64" as="geometry" />
        </mxCell>
        <mxCell id="GXyTZDjO0MZ4TqnyJxZA-6" value="Availability Zone&lt;br&gt;01" style="rounded=0;whiteSpace=wrap;html=1;dashed=1;fontColor=#666666;strokeColor=#CC0000;fillColor=none;verticalAlign=top;strokeWidth=2;fontStyle=0;shadow=0;sketch=0;" vertex="1" parent="1">
          <mxGeometry x="156.5" y="1640" width="250" height="280" as="geometry" />
        </mxCell>
        <mxCell id="GXyTZDjO0MZ4TqnyJxZA-7" value="" style="aspect=fixed;html=1;points=[];align=center;image;fontSize=12;image=img/lib/azure2/networking/Virtual_Networks.svg;dashed=1;fontColor=#666666;strokeColor=#97D077;strokeWidth=2;fillColor=none;" vertex="1" parent="1">
          <mxGeometry x="16.5" y="1683" width="33.5" height="20" as="geometry" />
        </mxCell>
        <mxCell id="GXyTZDjO0MZ4TqnyJxZA-8" value="Availability Zone&lt;br&gt;02" style="rounded=0;whiteSpace=wrap;html=1;dashed=1;fontColor=#666666;strokeColor=#CC0000;fillColor=none;verticalAlign=top;strokeWidth=2;fontStyle=0" vertex="1" parent="1">
          <mxGeometry x="418" y="1640" width="110" height="280" as="geometry" />
        </mxCell>
        <mxCell id="GXyTZDjO0MZ4TqnyJxZA-9" value="Availability Zone&lt;br&gt;03" style="rounded=0;whiteSpace=wrap;html=1;dashed=1;fontColor=#666666;strokeColor=#CC0000;fillColor=none;verticalAlign=top;strokeWidth=2;fontStyle=0" vertex="1" parent="1">
          <mxGeometry x="536.5" y="1640" width="110" height="280" as="geometry" />
        </mxCell>
        <mxCell id="GXyTZDjO0MZ4TqnyJxZA-10" value="Proximity Placement Group" style="swimlane;horizontal=0;fontColor=#666666;strokeColor=#4D4D4D;strokeWidth=1;fillColor=none;fontSize=9;fontStyle=0;align=left;" vertex="1" parent="1">
          <mxGeometry x="166" y="1779" width="230.5" height="132" as="geometry">
            <mxRectangle x="169.5" y="349" width="30" height="140" as="alternateBounds" />
          </mxGeometry>
        </mxCell>
        <mxCell id="GXyTZDjO0MZ4TqnyJxZA-11" value="spoke-01-az-01&lt;br&gt;10.13.1.5" style="aspect=fixed;html=1;points=[];align=center;image;fontSize=12;image=img/lib/azure2/compute/Virtual_Machine.svg;dashed=1;dashPattern=1 1;fontColor=#666666;strokeColor=#004C99;fillColor=#E6E6E6;" vertex="1" parent="GXyTZDjO0MZ4TqnyJxZA-10">
          <mxGeometry x="40.5" y="11" width="69" height="64" as="geometry" />
        </mxCell>
        <mxCell id="GXyTZDjO0MZ4TqnyJxZA-12" value="spoke-02&lt;br&gt;10.13.2.0/24" style="rounded=0;whiteSpace=wrap;html=1;dashed=1;strokeColor=#004C99;align=left;fontColor=#666666;verticalAlign=top;" vertex="1" parent="1">
          <mxGeometry x="16.5" y="2060" width="650" height="230" as="geometry" />
        </mxCell>
        <mxCell id="GXyTZDjO0MZ4TqnyJxZA-13" value="default subnet&lt;br&gt;&lt;div style=&quot;&quot;&gt;&lt;span style=&quot;background-color: initial;&quot;&gt;10.13.2.0/24&lt;/span&gt;&lt;/div&gt;" style="rounded=0;whiteSpace=wrap;html=1;dashed=1;dashPattern=1 1;fontColor=#666666;strokeColor=none;fillColor=#E6E6E6;align=left;verticalAlign=top;" vertex="1" parent="1">
          <mxGeometry x="56.5" y="2110" width="600" height="170" as="geometry" />
        </mxCell>
        <mxCell id="GXyTZDjO0MZ4TqnyJxZA-14" value="spoke-02-az-02&lt;br&gt;10.13.2.6" style="aspect=fixed;html=1;points=[];align=center;image;fontSize=12;image=img/lib/azure2/compute/Virtual_Machine.svg;dashed=1;dashPattern=1 1;fontColor=#666666;strokeColor=#004C99;fillColor=#E6E6E6;" vertex="1" parent="1">
          <mxGeometry x="438.5" y="2140" width="69" height="64" as="geometry" />
        </mxCell>
        <mxCell id="GXyTZDjO0MZ4TqnyJxZA-15" value="spoke-02-az-03&lt;br&gt;10.13.2.7" style="aspect=fixed;html=1;points=[];align=center;image;fontSize=12;image=img/lib/azure2/compute/Virtual_Machine.svg;dashed=1;dashPattern=1 1;fontColor=#666666;strokeColor=#004C99;fillColor=#E6E6E6;" vertex="1" parent="1">
          <mxGeometry x="557" y="2140" width="69" height="64" as="geometry" />
        </mxCell>
        <mxCell id="GXyTZDjO0MZ4TqnyJxZA-16" value="Availability Zone&lt;br&gt;01" style="rounded=0;whiteSpace=wrap;html=1;dashed=1;fontColor=#666666;strokeColor=#CC0000;fillColor=none;verticalAlign=top;strokeWidth=2;fontStyle=0;shadow=0;sketch=0;" vertex="1" parent="1">
          <mxGeometry x="296.75" y="1990" width="109.75" height="280" as="geometry" />
        </mxCell>
        <mxCell id="GXyTZDjO0MZ4TqnyJxZA-17" value="" style="aspect=fixed;html=1;points=[];align=center;image;fontSize=12;image=img/lib/azure2/networking/Virtual_Networks.svg;dashed=1;fontColor=#666666;strokeColor=#97D077;strokeWidth=2;fillColor=none;" vertex="1" parent="1">
          <mxGeometry x="16.5" y="2033" width="33.5" height="20" as="geometry" />
        </mxCell>
        <mxCell id="GXyTZDjO0MZ4TqnyJxZA-18" value="Availability Zone&lt;br&gt;02" style="rounded=0;whiteSpace=wrap;html=1;dashed=1;fontColor=#666666;strokeColor=#CC0000;fillColor=none;verticalAlign=top;strokeWidth=2;fontStyle=0" vertex="1" parent="1">
          <mxGeometry x="418" y="1990" width="110" height="280" as="geometry" />
        </mxCell>
        <mxCell id="GXyTZDjO0MZ4TqnyJxZA-19" value="Availability Zone&lt;br&gt;03" style="rounded=0;whiteSpace=wrap;html=1;dashed=1;fontColor=#666666;strokeColor=#CC0000;fillColor=none;verticalAlign=top;strokeWidth=2;fontStyle=0" vertex="1" parent="1">
          <mxGeometry x="536.5" y="1990" width="110" height="280" as="geometry" />
        </mxCell>
        <mxCell id="GXyTZDjO0MZ4TqnyJxZA-20" value="spoke-02-az-01&lt;br&gt;10.13.2.5" style="aspect=fixed;html=1;points=[];align=center;image;fontSize=12;image=img/lib/azure2/compute/Virtual_Machine.svg;dashed=1;dashPattern=1 1;fontColor=#666666;strokeColor=#004C99;fillColor=#E6E6E6;" vertex="1" parent="1">
          <mxGeometry x="322" y="2140" width="69" height="64" as="geometry" />
        </mxCell>
        <mxCell id="GXyTZDjO0MZ4TqnyJxZA-21" value="hub-lab-net&lt;br&gt;10.12.0.0/16" style="rounded=0;whiteSpace=wrap;html=1;dashed=1;strokeColor=#004C99;align=left;fontColor=#666666;verticalAlign=top;" vertex="1" parent="1">
          <mxGeometry x="716.5" y="1787" width="220" height="470" as="geometry" />
        </mxCell>
        <mxCell id="GXyTZDjO0MZ4TqnyJxZA-23" value="" style="aspect=fixed;html=1;points=[];align=center;image;fontSize=12;image=img/lib/azure2/networking/Virtual_Networks.svg;dashed=1;fontColor=#666666;strokeColor=#97D077;strokeWidth=2;fillColor=none;" vertex="1" parent="1">
          <mxGeometry x="716.5" y="1760" width="33.5" height="20" as="geometry" />
        </mxCell>
        <mxCell id="GXyTZDjO0MZ4TqnyJxZA-24" value="AzureFirewallSubnet&lt;br&gt;&lt;div style=&quot;&quot;&gt;&lt;span style=&quot;background-color: initial;&quot;&gt;10.12.3.0/24&lt;/span&gt;&lt;/div&gt;" style="rounded=0;whiteSpace=wrap;html=1;dashed=1;dashPattern=1 1;fontColor=#666666;strokeColor=none;fillColor=#E6E6E6;align=left;verticalAlign=top;" vertex="1" parent="1">
          <mxGeometry x="760" y="1937" width="150" height="170" as="geometry" />
        </mxCell>
        <mxCell id="GXyTZDjO0MZ4TqnyJxZA-25" value="firewall&lt;br&gt;10.12.3.4" style="sketch=0;aspect=fixed;html=1;points=[];align=center;image;fontSize=12;image=img/lib/mscae/Azure_Firewall.svg;rounded=0;shadow=0;fontColor=#666666;strokeColor=#4D4D4D;strokeWidth=1;fillColor=none;" vertex="1" parent="1">
          <mxGeometry x="812.5" y="1997" width="50" height="50" as="geometry" />
        </mxCell>
        <mxCell id="GXyTZDjO0MZ4TqnyJxZA-27" value="peering" style="endArrow=classic;startArrow=classic;html=1;rounded=0;fontSize=9;fontColor=#666666;strokeColor=#66B2FF;exitX=1.002;exitY=0.787;exitDx=0;exitDy=0;exitPerimeter=0;entryX=-0.008;entryY=0.221;entryDx=0;entryDy=0;entryPerimeter=0;verticalAlign=bottom;" edge="1" parent="1" source="GXyTZDjO0MZ4TqnyJxZA-1" target="GXyTZDjO0MZ4TqnyJxZA-21">
          <mxGeometry width="50" height="50" relative="1" as="geometry">
            <mxPoint x="986.5" y="1600" as="sourcePoint" />
            <mxPoint x="1036.5" y="1550" as="targetPoint" />
          </mxGeometry>
        </mxCell>
        <mxCell id="GXyTZDjO0MZ4TqnyJxZA-28" value="peering" style="endArrow=classic;startArrow=classic;html=1;rounded=0;fontSize=9;fontColor=#666666;strokeColor=#66B2FF;exitX=1.002;exitY=0.787;exitDx=0;exitDy=0;exitPerimeter=0;entryX=-0.008;entryY=0.221;entryDx=0;entryDy=0;entryPerimeter=0;verticalAlign=bottom;" edge="1" parent="1">
          <mxGeometry width="50" height="50" relative="1" as="geometry">
            <mxPoint x="668.5" y="2167.14" as="sourcePoint" />
            <mxPoint x="715.44" y="2167" as="targetPoint" />
          </mxGeometry>
        </mxCell>
      </root>
    </mxGraphModel>
  </diagram>
</mxfile>
